<?xml version="1.0" encoding="utf-8"?>
<!-- Generator: Adobe Illustrator 16.0.0, SVG Export Plug-In . SVG Version: 6.00 Build 0)  -->
<!DOCTYPE svg PUBLIC "-//W3C//DTD SVG 1.1//EN" "http://www.w3.org/Graphics/SVG/1.1/DTD/svg11.dtd">
<svg version="1.1" id="Layer_1" xmlns="http://www.w3.org/2000/svg" xmlns:xlink="http://www.w3.org/1999/xlink" x="0px" y="0px"
	 width="612.387px" height="504.5px" viewBox="0 0 612.387 504.5" enable-background="new 0 0 612.387 504.5" xml:space="preserve">
<g>
	<g>
		<defs>
			<rect id="SVGID_1_" x="-16" y="-172.771" width="748.5" height="968.647"/>
		</defs>
		<clipPath id="SVGID_2_">
			<use xlink:href="#SVGID_1_"  overflow="visible"/>
		</clipPath>
		<path clip-path="url(#SVGID_2_)" fill="#010101" d="M89.734,265.639c0.732,0.208,1.476,0.392,2.221,0.575
			c-0.967-0.243-1.955-0.509-2.936-0.769C89.258,265.507,89.494,265.578,89.734,265.639"/>
	</g>
	<g>
		<defs>
			<rect id="SVGID_3_" x="-16" y="-172.771" width="748.5" height="968.647"/>
		</defs>
		<clipPath id="SVGID_4_">
			<use xlink:href="#SVGID_3_"  overflow="visible"/>
		</clipPath>
		<path clip-path="url(#SVGID_4_)" fill="#F6EB00" d="M483.771,155.248c0.768-0.16,1.561-0.245,2.378-0.245
			c6.747,0,12.208,5.564,12.208,12.438c0,0.991-0.107,1.944-0.324,2.861c3.507,2.141,7.505,3.804,12.031,4.88
			c22.775,7.008,29.114,23.238,30.964,26.197c4.095-4.696,7.623-9.222,10.636-13.587c8.488-12.267,12.92-23.226,14.575-32.912
			v-0.012c5.308-30.992-17.84-48.897-27.96-54.597c-6.483-3.963-16.438-11.228-18.909-15.594
			c-13.353-23.482,10.865-47.368,17.105-54.12c-4.55,1.493-9.351,3.926-14.167,6.996c-4.802,3.082-9.615,6.8-14.179,10.873
			c-9.281,8.268-17.578,17.991-22.8,26.76V75.2C476.602,89.839,469.639,130.078,483.771,155.248 M544.265,197.249L544.265,197.249z"
			/>
	</g>
	<g>
		<defs>
			<rect id="SVGID_5_" x="-16" y="-172.771" width="748.5" height="968.647"/>
		</defs>
		<clipPath id="SVGID_6_">
			<use xlink:href="#SVGID_5_"  overflow="visible"/>
		</clipPath>
		<path clip-path="url(#SVGID_6_)" fill="#010101" d="M57.374,255.794l-0.777-0.478c0.197,0.172,0.394,0.343,0.601,0.514
			c0.001,0,0.002,0,0.003-0.001C57.262,255.818,57.324,255.806,57.374,255.794"/>
	</g>
	<g>
		<defs>
			<rect id="SVGID_7_" x="-16" y="-172.771" width="748.5" height="968.647"/>
		</defs>
		<clipPath id="SVGID_8_">
			<use xlink:href="#SVGID_7_"  overflow="visible"/>
		</clipPath>
		<path clip-path="url(#SVGID_8_)" fill="#010101" d="M57.953,255.659c-0.568-0.208-1.138-0.428-1.707-0.648
			c-0.125-0.036-0.238-0.085-0.352-0.134l0.693,0.428c0,0.012,0.01,0.012,0.01,0.012l0.777,0.478
			C57.57,255.745,57.766,255.696,57.953,255.659"/>
	</g>
	<g>
		<defs>
			<rect id="SVGID_9_" x="-16" y="-172.771" width="748.5" height="968.647"/>
		</defs>
		<clipPath id="SVGID_10_">
			<use xlink:href="#SVGID_9_"  overflow="visible"/>
		</clipPath>
		<path clip-path="url(#SVGID_10_)" fill="#3A88A5" d="M91.957,266.214c0.84,0.22,1.692,0.428,2.545,0.637h0.012
			c21.372,5.173,43.416,8.145,65.962,8.72c2.702,0.073,5.416,0.11,8.128,0.11c1.958,0,3.902-0.013,5.859-0.062
			c39.957-0.733,78.365-9.002,114.265-23.666c10.781-4.391,21.334-9.368,31.636-14.896c-11.623-7.705-22.463-16.829-32.381-27.2
			c-11.034-11.533-20.903-24.595-29.367-38.905c-0.721-1.235-1.441-2.483-2.149-3.73c-24.877,17.171-46.861,34.97-78.678,55.456
			c-6,3.675-52.027,37.507-121.804,32.199c9.276,3.458,19.899,6.959,30.014,9.753c1.008,0.271,2.011,0.556,3.021,0.815
			C90,265.705,90.989,265.971,91.957,266.214"/>
	</g>
	<g>
		<defs>
			<rect id="SVGID_11_" x="-16" y="-172.771" width="748.5" height="968.647"/>
		</defs>
		<clipPath id="SVGID_12_">
			<use xlink:href="#SVGID_11_"  overflow="visible"/>
		</clipPath>
		<path clip-path="url(#SVGID_12_)" fill="#010101" d="M230.148,414.201c-2.101-2.238-4.214-4.428-6.351-6.58
			C225.862,409.872,228,412.074,230.148,414.201"/>
	</g>
	<g>
		<defs>
			<rect id="SVGID_13_" x="-16" y="-172.771" width="748.5" height="968.647"/>
		</defs>
		<clipPath id="SVGID_14_">
			<use xlink:href="#SVGID_13_"  overflow="visible"/>
		</clipPath>
		<path clip-path="url(#SVGID_14_)" fill="#CEDCDD" d="M528.109,217.357l72.41,14.811c-9.834-8.108-20.447-14.97-31.709-20.375
			c-0.036-0.013-0.06-0.037-0.097-0.049c-0.071-0.037-0.143-0.074-0.215-0.111c-0.638-0.306-1.272-0.599-1.922-0.893
			c-0.527-0.257-1.079-0.501-1.62-0.746c-7.384-3.302-15.02-5.98-22.885-7.999c-0.312-0.073-0.624-0.159-0.937-0.232
			c-0.552,0.697-1.104,1.395-1.668,2.091c-2.569,3.192-5.187,6.336-7.828,9.442c-1.549,1.797-3.107,3.596-4.681,5.369
			c-1.573,1.774-3.171,3.523-4.768,5.259c0.06,0.293,0.097,0.574,0.145,0.868c0,0.123,0.024,0.245,0.047,0.367
			c0.792,0.22,1.586,0.452,2.377,0.66c0.804,0.221,1.599,0.429,2.391,0.636c11.178,2.911,22.632,4.917,34.314,5.933
			c2.531,0.232,5.078,0.403,7.637,0.538c0,0.158,0,0.158,0.011,0c0.335,0.024,0.685,0.049,1.033,0.061
			c3.193,0.146,6.411,0.221,9.64,0.221c6.977,0,13.903-0.343,20.735-1.04L528.109,217.357z"/>
	</g>
	<g>
		<defs>
			<rect id="SVGID_15_" x="-16" y="-172.771" width="748.5" height="968.647"/>
		</defs>
		<clipPath id="SVGID_16_">
			<use xlink:href="#SVGID_15_"  overflow="visible"/>
		</clipPath>
		<path clip-path="url(#SVGID_16_)" d="M287.982,209.856c9.918,10.371,20.759,19.495,32.382,27.2h0.012
			c19.582,12.964,41.338,21.868,64.462,25.757c0.071,0.013,0.156,0.024,0.229,0.037c1.066,0.171,2.136,0.343,3.218,0.501
			c1.067,0.16,2.149,0.294,3.229,0.429c0.805,0.098,1.608,0.195,2.412,0.281c0.998,0.109,1.995,0.208,2.991,0.294
			c0.947,0.085,1.885,0.158,2.833,0.232c0.12,0.012,0.229,0.012,0.334,0.024c0.865,0.061,1.729,0.109,2.595,0.158
			c0.145,0.013,0.288,0.013,0.433,0.024c0.938,0.049,1.885,0.086,2.833,0.11c0.985,0.037,1.981,0.062,2.979,0.073h0.048
			c0.755,0.024,1.512,0.024,2.268,0.024c24.278,0,47.461-5.491,68.713-15.471c14.12-6.629,27.398-15.252,39.573-25.562
			c0.66-0.551,1.308-1.113,1.956-1.676c0.133-0.11,0.252-0.208,0.374-0.318c3.301-2.898,6.532-5.919,9.677-9.063
			c2.64-3.106,5.259-6.25,7.827-9.442c0.564-0.697,1.116-1.394,1.669-2.091c-1.85-2.959-8.188-19.189-30.965-26.197
			c-4.525-1.076-8.524-2.74-12.03-4.88c-1.272,5.48-6.111,9.565-11.886,9.565c-6.735,0-12.199-5.565-12.199-12.426
			c0-6.042,4.227-11.081,9.819-12.193c-14.13-25.17-7.166-65.409,1.563-80.048c-1.789-0.954-3.592-1.847-5.403-2.703
			c-16.04-7.485-33.521-11.595-51.807-11.595c-8.201,0-16.257,0.832-24.073,2.434c-0.024,0-0.035,0.013-0.06,0.013
			c-14.121,2.862-27.519,8.231-39.862,15.691c-5.319,3.192-10.434,6.788-15.331,10.738c-0.013,0.013-0.024,0.024-0.036,0.024
			c-4.479,3.608-8.776,7.521-12.858,11.704c-0.372,0.379-0.758,0.771-1.13,1.162c-3.758,3.841-7.54,7.632-11.357,11.374
			c-0.012,0.013-0.012,0.026-0.023,0.026c-0.037,0.024-0.061,0.048-0.085,0.085c-21.264,19.275-43.583,37.021-66.839,53.068
			c0.708,1.247,1.429,2.495,2.149,3.73C267.08,185.261,276.948,198.323,287.982,209.856"/>
	</g>
	<g>
		<defs>
			<rect id="SVGID_17_" x="-16" y="-172.771" width="748.5" height="968.647"/>
		</defs>
		<clipPath id="SVGID_18_">
			<use xlink:href="#SVGID_17_"  overflow="visible"/>
		</clipPath>
		<path clip-path="url(#SVGID_18_)" fill="#010101" d="M297.876,458.929c-16.197-6.335-31.504-14.971-45.647-25.599
			C266.18,444.313,281.512,452.997,297.876,458.929"/>
	</g>
	<g>
		<defs>
			<rect id="SVGID_19_" x="-16" y="-172.771" width="748.5" height="968.647"/>
		</defs>
		<clipPath id="SVGID_20_">
			<use xlink:href="#SVGID_19_"  overflow="visible"/>
		</clipPath>
		<path clip-path="url(#SVGID_20_)" fill="#7CB3C6" d="M165.411,298.71c3.938,0.795,7.899,1.505,11.886,2.141
			c0.203,0.036,0.408,0.061,0.612,0.098c16.125,2.556,32.598,3.877,49.311,3.877c24.854,0,49.117-2.91,72.577-8.476
			c29.729-7.021,58.172-18.297,84.825-33.255c0.074-0.098,0.145-0.183,0.217-0.281c-23.123-3.889-44.88-12.793-64.463-25.757h-0.011
			c-10.302,5.528-20.855,10.506-31.637,14.896c-35.899,14.664-74.308,22.933-114.264,23.666c-1.957,0.049-3.902,0.062-5.859,0.062
			c-2.713,0-5.427-0.037-8.128-0.11c-22.548-0.575-44.591-3.547-65.962-8.72h-0.012c-0.853-0.209-1.705-0.417-2.545-0.637
			c-0.745-0.184-1.489-0.367-2.221-0.575c-0.24-0.061-0.477-0.132-0.715-0.193c-1.002-0.265-2.007-0.535-3.021-0.815
			c-9.491-2.555-18.842-5.544-28.033-8.971h-0.011c-0.192,0.037-0.384,0.086-0.577,0.135c8.825,5.442,17.866,10.481,27.099,15.08
			C110.11,283.643,137.208,293.072,165.411,298.71"/>
	</g>
	<g>
		<defs>
			<rect id="SVGID_21_" x="-16" y="-172.771" width="748.5" height="968.647"/>
		</defs>
		<clipPath id="SVGID_22_">
			<use xlink:href="#SVGID_21_"  overflow="visible"/>
		</clipPath>
		<path clip-path="url(#SVGID_22_)" fill="#010101" d="M85.999,264.63c1.014,0.28,2.018,0.552,3.02,0.815
			C88.008,265.186,87.006,264.901,85.999,264.63"/>
	</g>
	<g>
		<defs>
			<rect id="SVGID_23_" x="-16" y="-172.771" width="748.5" height="968.647"/>
		</defs>
		<clipPath id="SVGID_24_">
			<use xlink:href="#SVGID_23_"  overflow="visible"/>
		</clipPath>
		<path clip-path="url(#SVGID_24_)" fill="#010101" d="M384.622,263.095c0.157-0.073,0.3-0.158,0.444-0.244
			c-0.072-0.013-0.155-0.024-0.229-0.037C384.767,262.912,384.694,262.997,384.622,263.095"/>
	</g>
	<g>
		<defs>
			<rect id="SVGID_25_" x="-16" y="-172.771" width="748.5" height="968.647"/>
		</defs>
		<clipPath id="SVGID_26_">
			<use xlink:href="#SVGID_25_"  overflow="visible"/>
		</clipPath>
		<path clip-path="url(#SVGID_26_)" fill="#F6EB00" d="M540.733,200.871c0.312,0.073,1.027,1.052,1.339,1.125
			c7.865,2.019,15.501,4.697,22.886,7.999c0.539,0.245,1.093,0.489,1.619,0.747c0.649,0.293,1.285,0.587,1.922,0.893
			c0.072,0.036,0.144,0.073,0.215,0.11c0.037,0.012,0.061,0.036,0.097,0.049c8.898-21.244,3.624-66.115-3.516-78.612
			c-1.656,9.687-5.928,42.272-14.416,54.539C547.865,192.085,544.829,196.174,540.733,200.871"/>
	</g>
	<g>
		<defs>
			<rect id="SVGID_27_" x="-16" y="-172.771" width="748.5" height="968.647"/>
		</defs>
		<clipPath id="SVGID_28_">
			<use xlink:href="#SVGID_27_"  overflow="visible"/>
		</clipPath>
		<path clip-path="url(#SVGID_28_)" fill="#CEDCDD" d="M182.7,325.263c0.24,0.072,0.481,0.146,0.733,0.22
			c28.658,8.488,58.651,12.988,89.531,12.988c16.088,0,31.936-1.223,47.484-3.594c10.985-1.664,21.815-3.914,32.478-6.715
			c1.656-0.44,3.313-0.88,4.959-1.345c1.309-0.369,2.616-0.735,3.914-1.113c0.217-0.075,0.432-0.135,0.647-0.196
			c1.286-0.381,2.571-0.77,3.854-1.162c1.478-0.452,2.943-0.929,4.406-1.406c1.442-0.465,2.871-0.941,4.288-1.417
			c0.107-0.037,0.204-0.075,0.299-0.098c1.309-0.453,2.619-0.917,3.915-1.37c3.216-1.15,6.411-2.348,9.592-3.596
			c1.094-0.428,2.186-0.856,3.279-1.307c6.051-2.435,12.042-5.065,17.949-7.877c0.948-0.453,1.896-0.905,2.847-1.37
			c1.525-0.733,3.048-1.492,4.56-2.263c0.589-0.294,1.177-0.587,1.766-0.893c0.637-0.33,1.273-0.648,1.908-0.99
			c0.735-0.38,1.466-0.759,2.187-1.15c2.064-1.088,4.118-2.201,6.171-3.351c0.842-0.465,1.681-0.942,2.522-1.419
			c2.053-1.162,4.095-2.349,6.123-3.547c1.766-1.052,3.518-2.128,5.271-3.205c0.938-0.587,1.873-1.174,2.809-1.761
			c0.938-0.587,1.861-1.187,2.799-1.785c0.023-0.013,0.047-0.024,0.073-0.05c1.296-0.831,2.593-1.675,3.877-2.544
			c3.614-2.384,7.18-4.854,10.722-7.411c0.864-0.6,1.717-1.223,2.571-1.858c1.272-0.918,2.532-1.859,3.781-2.801
			c0.696-0.514,1.393-1.04,2.077-1.566c0.78-0.587,1.549-1.186,2.317-1.785c3.253-2.52,6.459-5.088,9.642-7.729
			c13.051-10.824,25.465-22.626,37.194-35.31c0.156-0.183,0.326-0.366,0.493-0.551c0.119-0.121,0.24-0.256,0.348-0.391
			c1.597-1.737,3.193-3.486,4.766-5.259c1.573-1.774,3.135-3.571,4.682-5.37c-3.145,3.143-6.374,6.165-9.677,9.063
			c-0.119,0.11-0.237,0.208-0.371,0.318c-0.65,0.563-1.297,1.125-1.958,1.675c-12.174,10.311-25.454,18.933-39.573,25.562
			c-21.25,9.98-44.436,15.472-68.711,15.472c-0.757,0-1.514,0-2.271-0.024h-0.048c-0.995-0.012-1.992-0.037-2.977-0.073
			c-0.949-0.024-1.898-0.062-2.834-0.11c-0.144-0.012-0.288-0.012-0.433-0.024c-0.863-0.049-1.728-0.098-2.593-0.159
			c-0.107-0.013-0.218-0.013-0.337-0.024c-0.945-0.073-1.885-0.146-2.832-0.232c-0.997-0.086-1.993-0.183-2.989-0.294
			c-0.805-0.085-1.608-0.183-2.412-0.281c-1.083-0.134-2.163-0.269-3.232-0.428c-1.081-0.159-2.148-0.33-3.218-0.501
			c-0.145,0.085-0.286,0.171-0.443,0.244c-26.652,14.958-55.097,26.234-84.824,33.255c-23.46,5.564-47.725,8.476-72.577,8.476
			c-16.713,0-33.187-1.321-49.311-3.877c-0.204-0.036-0.409-0.062-0.613-0.098c-3.985-0.637-7.947-1.346-11.885-2.141
			c-28.203-5.638-55.301-15.067-80.935-27.836c-9.232-4.6-18.273-9.639-27.098-15.08c-0.059,0.012-0.118,0.024-0.176,0.035
			c-0.001,0.001-0.002,0.001-0.004,0.001c7.024,6.029,14.24,11.766,21.636,17.221c28.815,21.207,60.308,37.841,93.745,49.02
			C175.928,323.194,179.302,324.259,182.7,325.263"/>
	</g>
	<g>
		<defs>
			<rect id="SVGID_29_" x="-16" y="-172.771" width="748.5" height="968.647"/>
		</defs>
		<clipPath id="SVGID_30_">
			<use xlink:href="#SVGID_29_"  overflow="visible"/>
		</clipPath>
		<polyline clip-path="url(#SVGID_30_)" fill="#010101" points="57.201,255.829 57.198,255.83 57.201,255.829 		"/>
	</g>
	<g>
		<defs>
			<rect id="SVGID_31_" x="-16" y="-172.771" width="748.5" height="968.647"/>
		</defs>
		<clipPath id="SVGID_32_">
			<use xlink:href="#SVGID_31_"  overflow="visible"/>
		</clipPath>
		<path clip-path="url(#SVGID_32_)" fill="#D3EEF7" d="M357.944,467.783c0.132-0.012,0.264-0.012,0.408-0.026
			c57.582-3.397,107.84-39.624,137.664-93.171c0.337-0.611,0.687-1.223,1.009-1.846c13.819-25.366,23.076-54.535,26.401-85.883
			c0.026-0.22,0.048-0.428,0.073-0.648c0.108-1.063,0.218-2.128,0.313-3.204c0.288-3.204,0.528-6.433,0.685-9.674
			c0.217-4.158,0.325-8.354,0.325-12.573c0-12.145-0.852-24.058-2.511-35.614c-0.012-0.135-0.023-0.257-0.036-0.367
			c-0.023-0.122-0.046-0.245-0.046-0.367c-0.048-0.294-0.084-0.575-0.145-0.868c-0.107,0.134-0.229,0.269-0.348,0.391
			c-0.169,0.184-0.336,0.368-0.493,0.551c-11.73,12.684-24.144,24.485-37.194,35.31c-3.183,2.642-6.389,5.21-9.643,7.729
			c-0.768,0.6-1.537,1.198-2.316,1.785c-0.685,0.526-1.381,1.052-2.077,1.566c-1.248,0.941-2.51,1.884-3.781,2.801
			c-0.854,0.635-1.706,1.26-2.57,1.858c-3.543,2.557-7.109,5.027-10.722,7.411c-1.285,0.869-2.581,1.713-3.879,2.545
			c-0.024,0.024-0.049,0.036-0.072,0.049c-0.938,0.6-1.861,1.198-2.799,1.785c-0.937,0.587-1.871,1.174-2.809,1.762
			c-1.754,1.075-3.505,2.152-5.271,3.204c-2.029,1.198-4.07,2.385-6.123,3.547c-0.841,0.477-1.681,0.954-2.521,1.419
			c-2.055,1.149-4.106,2.263-6.173,3.351c-0.72,0.392-1.452,0.771-2.185,1.15c-0.637,0.342-1.271,0.659-1.909,0.99
			c-0.588,0.306-1.177,0.6-1.766,0.893c-1.512,0.771-3.035,1.528-4.561,2.263c-0.949,0.465-1.897,0.917-2.846,1.37
			c-5.907,2.813-11.898,5.442-17.949,7.877c-1.094,0.45-2.186,0.88-3.278,1.307c-3.182,1.249-6.377,2.445-9.594,3.596
			c-1.297,0.453-2.605,0.917-3.913,1.37c-0.096,0.023-0.192,0.061-0.3,0.098c-1.417,0.477-2.847,0.952-4.287,1.417
			c-1.464,0.479-2.93,0.954-4.406,1.407c-1.285,0.392-2.57,0.782-3.855,1.162c-0.215,0.061-0.431,0.121-0.647,0.195
			c-1.297,0.379-2.604,0.744-3.913,1.112c-1.646,0.466-3.303,0.904-4.959,1.346c-10.662,2.801-21.491,5.051-32.478,6.715
			c-15.549,2.371-31.397,3.594-47.484,3.594c-30.881,0-60.872-4.5-89.532-12.988c-0.252-0.073-0.493-0.147-0.732-0.22
			c-3.398-1.004-6.772-2.067-10.123-3.193c-33.437-11.178-64.93-27.812-93.745-49.019c-22.296,8.476-45.071,15.729-68.244,21.696
			c80.791,12.916,154.149,53.081,213.041,112.704c0.06,0.049,0.107,0.109,0.168,0.171c2.136,2.151,4.25,4.341,6.351,6.579
			c0.024,0,0.035,0.015,0.035,0.037c6.977,6.911,14.337,13.974,22.044,19.771c14.143,10.629,28.206,19.11,45.649,24.92
			c16.456,5.481,33.605,9.1,51.543,9.1C352.278,468.028,355.123,467.942,357.944,467.783"/>
	</g>
	<g>
		<defs>
			<rect id="SVGID_33_" x="-16" y="-172.771" width="748.5" height="968.647"/>
		</defs>
		<clipPath id="SVGID_34_">
			<use xlink:href="#SVGID_33_"  overflow="visible"/>
		</clipPath>
		<path clip-path="url(#SVGID_34_)" fill="#020202" d="M524.651,225.438c-0.791-0.208-1.585-0.439-2.376-0.66
			c0.013,0.11,0.024,0.232,0.035,0.367c1.656,11.558,2.511,23.47,2.511,35.614c0,4.22-0.109,8.415-0.326,12.573
			c-0.155,3.241-0.396,6.47-0.684,9.675c-0.097,1.076-0.204,2.14-0.312,3.203c-0.026,0.221-0.049,0.429-0.074,0.649
			c-3.326,31.347-12.582,60.516-26.401,85.882c-0.325,0.623-0.673,1.234-1.01,1.847c-29.823,53.545-80.081,89.771-137.663,93.17
			c-0.145,0.014-0.276,0.014-0.408,0.026c-2.822,0.159-5.668,0.245-8.525,0.245c-17.937,0-35.239-3.182-51.544-9.1
			c19.476,7.606,40.233,11.888,61.788,12.268c1.031,0.023,2.063,0.034,3.095,0.034c108.777,0,197.891-99.505,205.742-225.675
			c-0.145,0.624,0.349-7.84,0.49-12.854c-2.579-0.134-5.15-0.317-7.708-0.55c-11.67-1.052-23.088-3.144-34.241-6.079
			C526.25,225.866,525.456,225.658,524.651,225.438"/>
	</g>
	<g>
		<defs>
			<rect id="SVGID_35_" x="-16" y="-172.771" width="748.5" height="968.647"/>
		</defs>
		<clipPath id="SVGID_36_">
			<use xlink:href="#SVGID_35_"  overflow="visible"/>
		</clipPath>
		<path clip-path="url(#SVGID_36_)" fill="none" stroke="#020202" stroke-miterlimit="10" d="M524.651,225.438
			c-0.791-0.208-1.585-0.439-2.376-0.66c0.013,0.11,0.024,0.232,0.035,0.367c1.656,11.558,2.511,23.47,2.511,35.614
			c0,4.22-0.109,8.415-0.326,12.573c-0.155,3.241-0.396,6.47-0.684,9.675c-0.097,1.076-0.204,2.14-0.312,3.203
			c-0.026,0.221-0.049,0.429-0.074,0.649c-3.326,31.347-12.582,60.516-26.401,85.882c-0.325,0.623-0.673,1.234-1.01,1.847
			c-29.823,53.545-80.081,89.771-137.663,93.17c-0.145,0.014-0.276,0.014-0.408,0.026c-2.822,0.159-5.668,0.245-8.525,0.245
			c-17.937,0-35.239-3.182-51.544-9.1c19.476,7.606,40.233,11.888,61.788,12.268c1.031,0.023,2.063,0.034,3.095,0.034
			c108.777,0,197.891-99.505,205.742-225.675c-0.145,0.624,0.349-7.84,0.49-12.854c-2.579-0.134-5.15-0.317-7.708-0.55
			c-11.67-1.052-23.088-3.144-34.241-6.079C526.25,225.866,525.456,225.658,524.651,225.438z"/>
	</g>
	<g>
		<defs>
			<rect id="SVGID_37_" x="-16" y="-172.771" width="748.5" height="968.647"/>
		</defs>
		<clipPath id="SVGID_38_">
			<use xlink:href="#SVGID_37_"  overflow="visible"/>
		</clipPath>
		<path clip-path="url(#SVGID_38_)" fill="#FFFFFF" d="M486.147,155.003c-0.817,0-1.608,0.085-2.377,0.245
			c-5.595,1.112-9.821,6.151-9.821,12.193c0,6.861,5.464,12.426,12.199,12.426c5.776,0,10.614-4.085,11.888-9.565
			c0.215-0.917,0.323-1.871,0.323-2.861C498.358,160.567,492.896,155.003,486.147,155.003"/>
	</g>
</g>
<g>
	<g>
		<defs>
			<path id="SVGID_39_" d="M521.509,223.934c-0.169,0.184-0.335,0.367-0.492,0.551c-11.729,12.683-24.146,24.484-37.195,35.309
				c-3.182,2.642-6.387,5.21-9.641,7.729c-0.768,0.6-1.536,1.198-2.319,1.786c-0.684,0.525-1.381,1.051-2.074,1.565
				c-1.25,0.941-2.512,1.883-3.783,2.8c-0.852,0.637-1.705,1.261-2.57,1.859c-3.541,2.557-7.107,5.027-10.722,7.412
				c-1.286,0.868-2.581,1.712-3.878,2.544c-0.025,0.024-0.047,0.036-0.073,0.049c-0.937,0.599-1.859,1.198-2.798,1.785
				c-0.937,0.587-1.873,1.175-2.81,1.762c-1.752,1.076-3.506,2.152-5.271,3.204c-2.028,1.198-4.069,2.386-6.121,3.547
				c-0.843,0.478-1.684,0.954-2.524,1.419c-2.053,1.149-4.104,2.263-6.172,3.351c-0.72,0.392-1.454,0.771-2.185,1.149
				c-0.636,0.343-1.273,0.661-1.909,0.991c-0.587,0.306-1.178,0.6-1.765,0.893c-1.514,0.771-3.039,1.529-4.563,2.263
				c-0.947,0.465-1.898,0.917-2.844,1.37c-5.908,2.813-11.9,5.442-17.952,7.877c-1.093,0.45-2.182,0.88-3.277,1.307
				c-3.181,1.249-6.375,2.446-9.592,3.596c-1.3,0.453-2.606,0.918-3.915,1.37c-0.096,0.024-0.192,0.062-0.301,0.099
				c-1.417,0.477-2.846,0.951-4.285,1.416c-1.465,0.479-2.929,0.954-4.406,1.407c-1.287,0.392-2.572,0.782-3.854,1.162
				c-0.215,0.061-0.434,0.122-0.648,0.195c-1.296,0.379-2.605,0.744-3.913,1.112c-1.646,0.466-3.302,0.904-4.96,1.346
				c-10.661,2.801-21.49,5.052-32.477,6.715c-15.549,2.371-31.397,3.594-47.484,3.594c-30.881,0-60.872-4.5-89.533-12.988
				c-0.252-0.073-0.492-0.146-0.731-0.22c-3.398-1.003-6.772-2.067-10.123-3.192c-33.438-11.179-64.93-27.812-93.745-49.02
				c-22.295,8.476-45.071,15.729-68.244,21.696c80.79,12.916,154.149,53.081,213.04,112.704c0.06,0.049,0.109,0.109,0.168,0.171
				c2.137,2.152,4.25,4.342,6.352,6.579c0.024,0,0.035,0.014,0.035,0.037c6.977,6.911,14.337,13.974,22.044,19.771
				c14.144,10.628,28.206,19.11,45.648,24.92c16.457,5.48,33.605,9.099,51.544,9.099c2.856,0,5.702-0.085,8.524-0.244
				c0.132-0.013,0.265-0.013,0.408-0.025c57.584-3.399,107.841-39.625,137.665-93.171c0.336-0.611,0.684-1.224,1.009-1.847
				c13.817-25.366,23.075-54.536,26.4-85.882c0.023-0.221,0.049-0.429,0.072-0.648c0.108-1.064,0.218-2.128,0.312-3.205
				c0.288-3.204,0.529-6.433,0.686-9.674c0.218-4.159,0.325-8.354,0.325-12.573c0-12.145-0.852-24.057-2.509-35.615
				c-0.013-0.134-0.025-0.257-0.037-0.366c-0.023-0.122-0.048-0.245-0.048-0.367c-0.048-0.293-0.083-0.574-0.143-0.868
				C521.749,223.677,521.63,223.811,521.509,223.934"/>
		</defs>
		<clipPath id="SVGID_40_">
			<use xlink:href="#SVGID_39_"  overflow="visible"/>
		</clipPath>
		
			<linearGradient id="SVGID_41_" gradientUnits="userSpaceOnUse" x1="-93.4937" y1="4.3115" x2="-92.2706" y2="4.3115" gradientTransform="matrix(447.0956 -73.8348 73.8348 447.0956 41509.0234 -8444.9688)">
			<stop  offset="0" style="stop-color:#F7EB00"/>
			<stop  offset="0.1172" style="stop-color:#F7EB00"/>
			<stop  offset="0.1514" style="stop-color:#DCD443"/>
			<stop  offset="0.2015" style="stop-color:#BDB966"/>
			<stop  offset="0.252" style="stop-color:#A3A271"/>
			<stop  offset="0.3017" style="stop-color:#8E8F74"/>
			<stop  offset="0.3505" style="stop-color:#7F8073"/>
			<stop  offset="0.3981" style="stop-color:#747571"/>
			<stop  offset="0.4439" style="stop-color:#6D6F6F"/>
			<stop  offset="0.4861" style="stop-color:#6B6C6F"/>
			<stop  offset="0.5703" style="stop-color:#595A5C"/>
			<stop  offset="0.6799" style="stop-color:#454547"/>
			<stop  offset="0.7857" style="stop-color:#323233"/>
			<stop  offset="0.8827" style="stop-color:#282829"/>
			<stop  offset="1" style="stop-color:#282829"/>
		</linearGradient>
		<polygon clip-path="url(#SVGID_40_)" fill="url(#SVGID_41_)" points="-28.94,230.033 510.943,140.875 563.899,461.537 
			24.015,550.694 		"/>
	</g>
</g>
</svg>
