<?xml version="1.0" standalone="no"?>
<!DOCTYPE svg PUBLIC "-//W3C//DTD SVG 20010904//EN"
 "http://www.w3.org/TR/2001/REC-SVG-20010904/DTD/svg10.dtd">
<svg version="1.0" xmlns="http://www.w3.org/2000/svg"
 width="2144.000000pt" height="2144.000000pt" viewBox="0 0 2144.000000 2144.000000"
 preserveAspectRatio="xMidYMid meet">
<metadata>
Created by potrace 1.11, written by Peter Selinger 2001-2013
</metadata>
<g transform="translate(0.000000,2144.000000) scale(0.100000,-0.100000)"
fill="#000000" stroke="none">
<path d="M19155 19542 c-381 -159 -792 -470 -1215 -921 -102 -108 -266 -320
-362 -467 l-60 -91 -131 65 c-156 76 -332 148 -513 208 -136 46 -406 118 -484
129 -24 4 -47 8 -51 10 -6 4 -33 9 -119 21 -30 4 -57 8 -60 9 -3 1 -34 5 -70
9 -36 4 -76 9 -90 11 -169 25 -707 25 -860 1 -14 -3 -50 -7 -80 -10 -30 -4
-66 -8 -80 -11 -92 -15 -210 -36 -235 -40 -16 -3 -100 -23 -185 -45 -613 -154
-1203 -456 -1721 -880 -162 -133 -206 -174 -584 -549 -181 -179 -364 -356
-405 -392 -41 -36 -113 -99 -160 -140 -190 -167 -615 -523 -740 -621 -19 -15
-91 -71 -160 -126 -266 -210 -729 -552 -1035 -764 -295 -204 -750 -531 -1102
-792 -98 -72 -529 -384 -590 -426 -11 -8 -72 -51 -135 -95 -213 -150 -263
-184 -508 -348 -370 -248 -630 -415 -796 -510 -141 -80 -494 -259 -594 -301
-25 -10 -63 -26 -85 -36 -216 -98 -748 -277 -965 -324 -14 -3 -52 -12 -85 -21
-72 -18 -63 -16 -255 -54 -85 -16 -175 -33 -200 -36 -25 -3 -52 -8 -60 -10 -8
-2 -37 -7 -65 -10 -27 -4 -61 -8 -75 -10 -14 -2 -72 -9 -130 -15 -58 -6 -118
-13 -135 -15 -141 -19 -747 -27 -977 -13 l-107 7 57 -47 c31 -25 59 -48 62
-51 12 -14 134 -115 256 -212 184 -146 197 -156 296 -231 49 -36 90 -69 91
-73 2 -8 -39 -24 -358 -139 -313 -114 -691 -241 -940 -316 -258 -79 -596 -176
-782 -226 -123 -32 -223 -61 -223 -64 0 -3 51 -13 112 -24 255 -41 584 -110
888 -186 1020 -254 1965 -619 2920 -1128 254 -135 775 -442 920 -542 14 -10
79 -53 145 -96 66 -42 122 -80 125 -83 3 -3 55 -39 115 -80 269 -182 720 -526
1040 -795 66 -56 122 -103 125 -106 3 -3 64 -57 135 -120 72 -63 135 -119 141
-125 6 -5 62 -57 125 -115 63 -57 292 -282 509 -500 582 -583 715 -701 1085
-967 432 -309 860 -540 1275 -688 58 -20 110 -43 116 -51 24 -30 472 -178 735
-243 304 -75 650 -135 904 -157 33 -3 78 -7 100 -9 298 -30 843 -20 1165 20
19 2 57 7 84 10 26 3 92 12 145 21 53 9 105 17 116 19 67 10 116 20 255 50
828 179 1623 535 2345 1049 177 125 470 357 566 446 8 8 56 51 105 95 177 159
473 463 637 656 21 24 48 55 61 69 66 72 327 411 419 545 127 183 232 346 359
555 200 329 436 811 600 1219 142 357 310 874 373 1151 2 8 10 40 19 70 15 56
81 351 90 404 3 16 10 52 15 80 6 28 12 62 15 76 2 14 7 36 10 50 3 14 8 41
11 60 2 19 14 91 24 160 11 69 23 148 26 175 4 28 8 61 11 75 2 14 7 54 10 88
3 35 7 73 10 85 2 12 6 53 9 92 3 38 7 91 10 118 3 26 7 68 10 95 3 26 7 106
10 177 9 252 17 400 21 404 2 2 32 3 66 1 241 -11 826 5 928 26 8 1 24 3 35 4
17 1 15 5 -15 31 -63 55 -293 224 -415 306 -176 116 -312 197 -475 281 -100
52 -144 80 -143 91 1 9 17 66 37 127 19 62 42 152 50 200 9 49 18 100 21 113
2 13 7 56 11 95 3 39 8 74 10 77 15 27 22 511 10 724 -13 233 -20 298 -52 535
-4 32 -26 156 -38 220 -38 199 -95 393 -153 520 -14 30 -37 89 -50 130 -44
132 -169 374 -234 454 -5 6 -38 47 -73 91 -122 154 -308 322 -474 427 -365
233 -539 361 -670 496 -58 59 -83 96 -122 176 -171 350 -127 739 133 1171 97
161 213 312 406 524 40 44 69 81 65 81 -5 0 -50 -18 -99 -38z m281 -5794 c4
-6 3 -8 -3 -5 -6 4 -57 -52 -114 -123 -57 -71 -107 -129 -112 -129 -4 -1 43
60 104 134 61 74 113 135 115 135 1 0 6 -5 10 -12z m-236 -271 c0 -2 -10 -12
-22 -23 l-23 -19 19 23 c18 21 26 27 26 19z m-62 -76 c-13 -17 -27 -30 -31
-30 -5 -1 2 12 15 28 13 17 27 30 31 30 5 1 -2 -12 -15 -28z m-130 -147 c-51
-58 -99 -114 -107 -125 -7 -10 -18 -19 -23 -19 -5 0 41 56 102 125 62 69 114
125 117 125 2 0 -37 -48 -89 -106z m-169 -191 c-18 -20 -40 -43 -46 -51 -7 -7
-13 -10 -13 -5 0 10 79 93 88 93 3 0 -10 -17 -29 -37z"/>
</g>
</svg>
